<svg width="38" height="38" viewBox="0 0 38 38" fill="none" xmlns="http://www.w3.org/2000/svg">
<path d="M18.1687 35.3567C26.5635 35.3567 33.3687 28.9213 33.3687 20.9828C33.3687 13.0443 26.5635 6.60889 18.1687 6.60889C9.77402 6.60889 2.96875 13.0443 2.96875 20.9828C2.96875 28.9213 9.77402 35.3567 18.1687 35.3567Z" fill="#F89E47"/>
<path d="M18.1711 35.687C15.0994 35.687 12.0968 34.8246 9.54282 33.2089C6.98886 31.5931 4.99827 29.2966 3.82281 26.6098C2.64735 23.9229 2.3398 20.9664 2.93905 18.114C3.53829 15.2616 5.01742 12.6416 7.18939 10.5851C9.36136 8.52869 12.1286 7.12824 15.1412 6.56087C18.1538 5.9935 21.2765 6.28469 24.1143 7.39763C26.9521 8.51057 29.3776 10.3953 31.0842 12.8134C32.7907 15.2315 33.7015 18.0744 33.7015 20.9827C33.6971 24.8812 32.0594 28.6189 29.1479 31.3756C26.2363 34.1323 22.2886 35.6828 18.1711 35.687ZM18.1711 6.67307C15.1819 6.67307 12.2599 7.51232 9.77445 9.08468C7.28905 10.657 5.35191 12.8919 4.208 15.5066C3.0641 18.1214 2.7648 20.9985 3.34796 23.7743C3.93111 26.5501 5.37053 29.0999 7.48419 31.1011C9.59786 33.1023 12.2908 34.4652 15.2226 35.0173C18.1543 35.5695 21.1931 35.2861 23.9548 34.203C26.7164 33.12 29.0768 31.2859 30.7375 28.9327C32.3982 26.5795 33.2846 23.8128 33.2846 20.9827C33.2802 17.1888 31.6864 13.5515 28.8531 10.8689C26.0197 8.18621 22.1781 6.67725 18.1711 6.67307Z" fill="#013C35"/>
<path d="M16.8493 35.0261C24.6966 35.0261 31.058 28.5907 31.058 20.6522C31.058 12.7137 24.6966 6.27832 16.8493 6.27832C9.00207 6.27832 2.64062 12.7137 2.64062 20.6522C2.64062 28.5907 9.00207 35.0261 16.8493 35.0261Z" fill="#F89E47"/>
<path d="M18.6731 34.3796H18.6735C22.6608 34.3754 26.4852 32.8253 29.307 30.0669C32.1291 27.3082 33.7179 23.5662 33.7221 19.6614V19.661C33.7221 16.7482 32.8385 13.9015 31.1839 11.4808C29.5293 9.06027 27.1785 7.17484 24.4296 6.06178C21.6807 4.94874 18.6563 4.65763 15.7386 5.22495C12.8209 5.79229 10.1397 7.19283 8.03461 9.25065C5.9294 11.3086 4.49481 13.9315 3.91353 16.7881C3.33224 19.6448 3.63065 22.6057 4.77068 25.2962C5.91068 27.9865 7.84066 30.2847 10.3153 31.9011C12.7899 33.5174 15.6984 34.3796 18.6731 34.3796ZM10.9116 8.31899C13.2083 6.81888 15.9093 6.01772 18.6729 6.01768C22.3779 6.02171 25.9285 7.46231 28.546 10.021C31.1632 12.5795 32.6339 16.0466 32.638 19.6614C32.6379 22.3579 31.82 24.9945 30.2865 27.2379C28.753 29.4814 26.5724 31.2312 24.0198 32.2648C21.4671 33.2984 18.6577 33.569 15.9472 33.0419C13.2368 32.5149 10.7482 31.2142 8.79563 29.3056C6.84317 27.397 5.51445 24.9663 4.97622 22.3212C4.43801 19.6762 4.71417 16.9346 5.77013 14.4425C6.82613 11.9504 8.61495 9.81908 10.9116 8.31899Z" fill="#8C664B" stroke="#8C664B" stroke-width="0.689377"/>
<path d="M17.1821 35.3564C14.2411 35.3564 11.3663 34.494 8.92099 32.8783C6.4757 31.2626 4.56982 28.9661 3.44438 26.2792C2.31894 23.5923 2.02448 20.6358 2.59822 17.7834C3.17197 14.9311 4.58816 12.311 6.6677 10.2546C8.74725 8.19812 11.3967 6.79767 14.2812 6.2303C17.1656 5.66293 20.1554 5.95413 22.8724 7.06707C25.5895 8.18 27.9118 10.0647 29.5457 12.4828C31.1796 14.9009 32.0516 17.7439 32.0516 20.6521C32.0474 24.5507 30.4794 28.2883 27.6918 31.045C24.9041 33.8017 21.1244 35.3523 17.1821 35.3564ZM17.1821 6.3425C14.3201 6.3425 11.5224 7.18176 9.14276 8.75412C6.76312 10.3265 4.90841 12.5613 3.81318 15.1761C2.71795 17.7908 2.43139 20.668 2.98973 23.4438C3.54807 26.2196 4.92624 28.7693 6.94996 30.7705C8.97368 32.7718 11.5521 34.1346 14.359 34.6867C17.166 35.2389 20.0755 34.9555 22.7196 33.8725C25.3638 32.7894 27.6237 30.9553 29.2137 28.6021C30.8038 26.2489 31.6524 23.4823 31.6524 20.6521C31.6482 16.8582 30.1223 13.221 27.4095 10.5383C24.6967 7.85564 21.0186 6.34668 17.1821 6.3425Z" fill="#8C664B"/>
<path d="M16.8516 35.026C13.9761 35.026 11.1651 34.1733 8.77413 32.5757C6.38318 30.9781 4.51966 28.7074 3.41923 26.0508C2.31879 23.3941 2.03088 20.4708 2.59187 17.6505C3.15287 14.8301 4.53759 12.2395 6.57092 10.2062C8.60425 8.17284 11.1949 6.78812 14.0152 6.22712C16.8355 5.66613 19.7588 5.95406 22.4155 7.05449C25.0722 8.15492 27.3429 10.0184 28.9405 12.4094C30.5381 14.8003 31.3908 17.6113 31.3908 20.4869C31.3866 24.3416 29.8535 28.0373 27.1278 30.7631C24.4021 33.4888 20.7064 35.0219 16.8516 35.026ZM16.8516 6.33807C14.0533 6.33807 11.3177 7.16789 8.99098 8.72258C6.66422 10.2773 4.85072 12.487 3.77983 15.0724C2.70894 17.6577 2.42875 20.5026 2.97468 23.2472C3.52062 25.9918 4.86816 28.5129 6.84691 30.4916C8.82565 32.4704 11.3467 33.8179 14.0913 34.3638C16.8359 34.9098 19.6808 34.6296 22.2662 33.5587C24.8515 32.4878 27.0613 30.6743 28.6159 28.3476C30.1706 26.0208 31.0005 23.2853 31.0005 20.4869C30.9963 16.7357 29.5043 13.1393 26.8518 10.4867C24.1993 7.83421 20.6029 6.3422 16.8516 6.33807Z" fill="#013C35"/>
<path d="M18.987 33.9122C27.1518 33.9122 33.7708 27.2614 33.7708 19.0572C33.7708 10.853 27.1518 4.20215 18.987 4.20215C10.8221 4.20215 4.20312 10.853 4.20312 19.0572C4.20312 27.2614 10.8221 33.9122 18.987 33.9122Z" fill="#F89E47"/>
<path d="M18.9772 34.1143C16.0134 34.1143 13.1162 33.2312 10.652 31.5767C8.1877 29.9222 6.26703 27.5706 5.13285 24.8193C3.99867 22.0679 3.70193 19.0405 4.28013 16.1197C4.85833 13.1989 6.28551 10.5159 8.38119 8.41014C10.4769 6.30436 13.1469 4.87031 16.0537 4.28932C18.9605 3.70834 21.9735 4.00653 24.7117 5.14617C27.4498 6.28581 29.7902 8.21573 31.4367 10.6919C33.0833 13.168 33.9621 16.0791 33.9621 19.0572C33.9579 23.0492 32.3777 26.8766 29.5684 29.6995C26.7591 32.5223 22.9501 34.11 18.9772 34.1143ZM18.9772 4.40422C16.093 4.40422 13.2736 5.26361 10.8755 6.8737C8.47735 8.48378 6.60825 10.7723 5.50452 13.4497C4.40079 16.1272 4.112 19.0734 4.67468 21.9158C5.23735 24.7582 6.62622 27.3691 8.66564 29.4183C10.7051 31.4676 13.3035 32.8631 16.1322 33.4285C18.961 33.9939 21.8931 33.7038 24.5577 32.5947C27.2224 31.4857 29.4999 29.6076 31.1022 27.1979C32.7046 24.7882 33.5599 21.9552 33.5599 19.0572C33.5556 15.1723 32.0179 11.4477 29.284 8.7007C26.5501 5.95367 22.8434 4.4085 18.9772 4.40422Z" fill="#013C35"/>
<path d="M19.4219 30.4033C17.0485 30.4033 14.7284 29.6995 12.755 28.381C10.7817 27.0624 9.24357 25.1882 8.33532 22.9955C7.42707 20.8028 7.18944 18.39 7.65246 16.0622C8.11548 13.7345 9.25837 11.5963 10.9366 9.91804C12.6148 8.23981 14.753 7.09692 17.0808 6.6339C19.4086 6.17088 21.8214 6.40852 24.0141 7.31677C26.2068 8.22503 28.0809 9.7631 29.3995 11.7365C30.7181 13.7099 31.4219 16.0299 31.4219 18.4033C31.4185 21.5849 30.1531 24.6351 27.9034 26.8848C25.6537 29.1345 22.6034 30.3999 19.4219 30.4033ZM19.4219 6.72547C17.1122 6.72547 14.8544 7.41037 12.934 8.69355C11.0136 9.97673 9.51682 11.8006 8.63295 13.9344C7.74908 16.0683 7.51782 18.4163 7.96841 20.6816C8.419 22.9468 9.53121 25.0276 11.1644 26.6608C12.7976 28.294 14.8784 29.4062 17.1436 29.8568C19.4089 30.3074 21.757 30.0761 23.8908 29.1923C26.0246 28.3084 27.8485 26.8116 29.1317 24.8912C30.4148 22.9708 31.0997 20.713 31.0997 18.4033C31.0963 15.3072 29.8649 12.3389 27.6756 10.1496C25.4863 7.96032 22.518 6.72888 19.4219 6.72547Z" fill="white" stroke="#8C664B" stroke-width="0.344688"/>
<path d="M19.2604 30.4036C16.8541 30.4036 14.5018 29.6901 12.501 28.3532C10.5002 27.0163 8.94075 25.1161 8.01988 22.893C7.09902 20.6698 6.85808 18.2235 7.32754 15.8634C7.79699 13.5033 8.95575 11.3354 10.6573 9.63385C12.3588 7.93231 14.5267 6.77355 16.8868 6.3041C19.2469 5.83464 21.6932 6.07559 23.9164 6.99645C26.1396 7.91732 28.0397 9.47676 29.3766 11.4776C30.7135 13.4784 31.4271 15.8306 31.4271 18.237C31.4236 21.4627 30.1407 24.5554 27.8597 26.8363C25.5788 29.1172 22.4862 30.4002 19.2604 30.4036ZM19.2604 6.39694C16.9187 6.39694 14.6295 7.09135 12.6824 8.39235C10.7354 9.69335 9.21779 11.5425 8.32165 13.706C7.4255 15.8695 7.19103 18.2501 7.64788 20.5469C8.10473 22.8436 9.23238 24.9533 10.8882 26.6092C12.5441 28.265 14.6538 29.3927 16.9505 29.8495C19.2473 30.3064 21.6279 30.0719 23.7914 29.1758C25.9549 28.2796 27.8041 26.7621 29.1051 24.815C30.4061 22.8679 31.1005 20.5787 31.1005 18.237C31.097 15.0979 29.8485 12.0883 27.6288 9.86863C25.4091 7.64894 22.3995 6.40039 19.2604 6.39694Z" fill="#013C35"/>
<path d="M15.7604 18.4033C14.8423 18.4033 14.0938 17.5066 14.0938 16.4041C14.0938 15.3016 14.8438 14.4033 15.7604 14.4033C16.677 14.4033 17.4271 15.3016 17.4271 16.4041C17.4271 17.5066 16.674 18.4033 15.7604 18.4033ZM15.7604 14.5667C14.9248 14.5667 14.2438 15.3915 14.2438 16.4041C14.2438 17.4168 14.9248 18.24 15.7604 18.24C16.596 18.24 17.2771 17.4233 17.2771 16.4041C17.2771 15.3849 16.59 14.5667 15.7604 14.5667Z" fill="#8C664B" stroke="#8C664B" stroke-width="0.344688"/>
<path d="M15.6193 14.0179C15.5557 12.8534 15.4805 11.5467 15.4688 10.3806C15.4788 9.97584 15.4855 9.57284 15.529 9.16813C15.5323 9.13913 15.5466 9.11264 15.5689 9.09437C15.5911 9.07609 15.6194 9.06748 15.6477 9.07038C15.6721 9.07299 15.6949 9.08413 15.7123 9.10192C15.7296 9.11972 15.7405 9.1431 15.743 9.16813C15.813 9.97449 15.8219 10.7852 15.7698 11.593L15.7196 12.8054C15.6979 13.2101 15.6795 13.6149 15.6527 14.0179C15.6527 14.0224 15.651 14.0268 15.6478 14.03C15.6447 14.0332 15.6404 14.035 15.636 14.035C15.6316 14.035 15.6273 14.0332 15.6242 14.03C15.621 14.0268 15.6193 14.0224 15.6193 14.0179Z" fill="#8C664B"/>
<path d="M13.6212 15.2202C12.606 14.6937 11.4654 14.1038 10.4753 13.531C10.1408 13.3201 9.80627 13.1109 9.48181 12.8691C9.47037 12.8607 9.46067 12.8501 9.45328 12.8379C9.44589 12.8257 9.44096 12.812 9.43878 12.7978C9.4366 12.7836 9.43721 12.7691 9.44058 12.7551C9.44395 12.7411 9.45 12.728 9.45839 12.7164C9.47279 12.696 9.49362 12.6812 9.51738 12.6747C9.54114 12.6681 9.56638 12.6701 9.58885 12.6804C10.3044 13.0224 10.9933 13.4202 11.6493 13.8706L12.6528 14.5222C12.9873 14.7452 13.3218 14.963 13.6429 15.1893C13.6469 15.1916 13.6499 15.1954 13.6511 15.1999C13.6524 15.2044 13.6518 15.2092 13.6496 15.2133C13.6474 15.2174 13.6437 15.2205 13.6393 15.2217C13.6349 15.223 13.6302 15.2225 13.6262 15.2202H13.6212Z" fill="#8C664B"/>
<path d="M13.6398 17.5918C12.6865 18.228 11.6178 18.9466 10.6377 19.5382C10.2915 19.7303 9.94696 19.9258 9.58236 20.0887C9.55795 20.1005 9.5301 20.1024 9.50437 20.094C9.47865 20.0857 9.45696 20.0677 9.44364 20.0436C9.43032 20.0195 9.42635 19.9912 9.43254 19.9643C9.43872 19.9373 9.4546 19.9138 9.47699 19.8983C10.1241 19.4343 10.8051 19.022 11.5141 18.6653L12.5644 18.1063C12.9173 17.9245 13.2685 17.7393 13.6231 17.5627C13.6268 17.5612 13.6308 17.5611 13.6346 17.5625C13.6383 17.5638 13.6414 17.5665 13.6435 17.57C13.6455 17.5735 13.6462 17.5776 13.6455 17.5816C13.6448 17.5856 13.6428 17.5892 13.6398 17.5918Z" fill="#8C664B"/>
<path d="M14.4925 18.4498C14.158 19.1649 13.7917 19.9726 13.4137 20.662C13.2764 20.9003 13.1245 21.1294 12.9588 21.348C12.9408 21.3708 12.9147 21.3855 12.8862 21.3887C12.8577 21.3919 12.8291 21.3834 12.8066 21.3651C12.7884 21.3505 12.7754 21.3302 12.7693 21.3074C12.7633 21.2845 12.7647 21.2602 12.7732 21.2382C13.0542 20.4905 13.5776 19.7823 14.0041 19.1152C14.1563 18.8888 14.3068 18.6607 14.4641 18.4292C14.4758 18.4138 14.5025 18.4292 14.4925 18.4463V18.4498Z" fill="#8C664B"/>
<path d="M15.6473 18.7701C15.7075 19.9362 15.7777 21.243 15.7877 22.4091C15.776 22.8138 15.7677 23.2185 15.7225 23.6215C15.7193 23.648 15.7067 23.6725 15.6871 23.6901C15.6676 23.7078 15.6424 23.7176 15.6163 23.7176C15.5902 23.7176 15.5651 23.7078 15.5455 23.6901C15.526 23.6725 15.5134 23.648 15.5101 23.6215C15.4416 22.8144 15.4348 22.0031 15.49 21.1949L15.5436 19.9825C15.567 19.5795 15.5854 19.1748 15.6138 18.7701C15.6138 18.7655 15.6156 18.7612 15.6187 18.758C15.6218 18.7547 15.6261 18.7529 15.6305 18.7529C15.635 18.7529 15.6392 18.7547 15.6424 18.758C15.6455 18.7612 15.6473 18.7655 15.6473 18.7701Z" fill="#8C664B"/>
<path d="M16.8007 18.4495C17.2256 19.0789 17.7056 19.7854 18.0869 20.4422C18.2138 20.6744 18.3255 20.915 18.4214 21.1625C18.4302 21.1871 18.4303 21.2142 18.4216 21.2389C18.4129 21.2637 18.3959 21.2844 18.3737 21.2976C18.3515 21.3107 18.3254 21.3154 18.3002 21.3107C18.2749 21.3061 18.2521 21.2924 18.2357 21.2722C17.7591 20.672 17.438 19.8797 17.1001 19.1903C16.9914 18.9485 16.8777 18.7101 16.7656 18.4666C16.7656 18.4495 16.784 18.4323 16.7957 18.4495H16.8007Z" fill="#8C664B"/>
<path d="M17.6546 17.5764C18.6681 18.1063 19.8071 18.6979 20.7955 19.2741C21.13 19.4868 21.4645 19.696 21.7873 19.9395C21.7987 19.9479 21.8084 19.9585 21.8158 19.9707C21.8232 19.9829 21.8282 19.9966 21.8303 20.0108C21.8325 20.025 21.8319 20.0395 21.8285 20.0535C21.8252 20.0675 21.8191 20.0806 21.8107 20.0922C21.7961 20.1124 21.7753 20.1269 21.7516 20.1335C21.7279 20.14 21.7028 20.1381 21.6803 20.1282C20.9655 19.7828 20.2778 19.3814 19.6231 18.9277L18.6196 18.2726C18.2851 18.048 17.9506 17.8302 17.6312 17.6021C17.6161 17.5918 17.6312 17.5627 17.6479 17.573L17.6546 17.5764Z" fill="#8C664B"/>
<path d="M17.9464 16.3916C18.6606 16.3299 19.465 16.2578 20.1825 16.2476C20.4318 16.252 20.6805 16.2743 20.9268 16.3144C20.9526 16.3178 20.9764 16.3307 20.9937 16.3507C21.0109 16.3708 21.0205 16.3966 21.0205 16.4233C21.0205 16.4501 21.0109 16.4759 20.9937 16.4959C20.9764 16.516 20.9526 16.5289 20.9268 16.5322C20.2093 16.6557 19.4132 16.5442 18.6907 16.4979C18.4431 16.4739 18.1889 16.4551 17.9464 16.4259C17.942 16.4259 17.9377 16.4241 17.9346 16.4209C17.9315 16.4177 17.9297 16.4133 17.9297 16.4088C17.9297 16.4042 17.9315 16.3999 17.9346 16.3966C17.9377 16.3934 17.942 16.3916 17.9464 16.3916Z" fill="#8C664B"/>
<path d="M17.6531 15.2034C18.6064 14.5689 19.6785 13.8537 20.6636 13.2655C21.0098 13.0752 21.356 12.8797 21.7206 12.7185C21.745 12.7067 21.7729 12.7048 21.7986 12.7131C21.8243 12.7215 21.846 12.7395 21.8593 12.7636C21.8726 12.7876 21.8766 12.816 21.8704 12.8429C21.8642 12.8698 21.8484 12.8934 21.826 12.9088C21.1777 13.371 20.4955 13.7809 19.7855 14.135L18.7335 14.6906C18.379 14.8621 18.0278 15.0559 17.6715 15.2325C17.6548 15.2325 17.6381 15.2137 17.6565 15.2034H17.6531Z" fill="#8C664B"/>
<path d="M16.7912 14.342C17.114 13.656 17.4736 12.8654 17.8415 12.1966C17.9746 11.9673 18.1233 11.7478 18.2864 11.5398C18.3021 11.518 18.325 11.5029 18.3509 11.4974C18.3767 11.4919 18.4037 11.4964 18.4265 11.51C18.4493 11.5236 18.4664 11.5454 18.4745 11.5712C18.4826 11.5969 18.4812 11.6249 18.4704 11.6496C18.1995 12.3767 17.6877 13.0592 17.2712 13.7075C17.1207 13.9252 16.9752 14.1448 16.8213 14.3608C16.8191 14.3649 16.8154 14.368 16.811 14.3692C16.8066 14.3705 16.8019 14.37 16.7979 14.3677C16.7939 14.3654 16.791 14.3616 16.7897 14.3571C16.7885 14.3526 16.789 14.3478 16.7912 14.3437V14.342Z" fill="#8C664B"/>
<path d="M13.3361 16.4227C12.622 16.493 11.8192 16.5719 11.1017 16.5942C10.8526 16.5927 10.6039 16.5732 10.3574 16.5359C10.3433 16.5338 10.3297 16.5289 10.3175 16.5213C10.3053 16.5138 10.2946 16.5038 10.2862 16.492C10.2778 16.4801 10.2718 16.4667 10.2685 16.4524C10.2652 16.4382 10.2647 16.4234 10.2671 16.409C10.2709 16.3863 10.2815 16.3654 10.2974 16.3491C10.3132 16.3329 10.3336 16.322 10.3558 16.3181C11.0716 16.1861 11.8694 16.2907 12.5902 16.3301C12.8394 16.3524 13.0919 16.3696 13.3361 16.3953C13.3406 16.3953 13.3448 16.3971 13.3479 16.4003C13.3511 16.4035 13.3528 16.4079 13.3528 16.4124C13.3528 16.417 13.3511 16.4213 13.3479 16.4246C13.3448 16.4278 13.3406 16.4296 13.3361 16.4296V16.4227Z" fill="#8C664B"/>
<path d="M14.4778 14.3595C14.0463 13.7319 13.558 13.027 13.1699 12.3702C13.0428 12.1381 12.9311 11.8975 12.8354 11.65C12.8251 11.6225 12.8257 11.5918 12.8373 11.5648C12.8489 11.5378 12.8705 11.5167 12.8973 11.5059C12.9186 11.4979 12.9418 11.4968 12.9637 11.503C12.9856 11.5091 13.0051 11.5222 13.0194 11.5402C13.5044 12.137 13.8339 12.9293 14.1784 13.6187C14.2905 13.8605 14.4059 14.0989 14.5129 14.3424C14.5152 14.3465 14.5157 14.3513 14.5144 14.3558C14.5132 14.3603 14.5102 14.3641 14.5062 14.3664C14.5023 14.3687 14.4975 14.3692 14.4932 14.3679C14.4888 14.3666 14.4851 14.3636 14.4828 14.3595H14.4778Z" fill="#8C664B"/>
<path d="M24.3303 22.257C23.5234 23.6266 22.2476 24.6387 20.7521 25.0956C19.2565 25.5526 17.6486 25.4216 16.2422 24.7282C16.8814 25.7451 17.7627 26.5782 18.8029 27.149C19.8432 27.7199 21.0081 28.0096 22.1878 27.9909C23.3675 27.9721 24.5231 27.6456 25.5456 27.042C26.5682 26.4385 27.4239 25.5778 28.0321 24.5411C28.6403 23.5045 28.981 22.3261 29.0219 21.117C29.0629 19.908 28.8028 18.7082 28.2662 17.6307C27.7297 16.5533 26.9342 15.6338 25.955 14.9589C24.9758 14.2841 23.8451 13.8761 22.6695 13.7734C23.9254 14.7227 24.7913 16.1177 25.0984 17.6862C25.4054 19.2548 25.1316 20.8843 24.3303 22.257Z" fill="#F89E47" stroke="#8C664B" stroke-width="0.689377" stroke-miterlimit="10"/>
<path d="M15.6472 18.4942C14.6236 18.4942 13.7891 17.5527 13.7891 16.3952C13.7891 15.2376 14.6253 14.2944 15.6472 14.2944C16.6691 14.2944 17.5053 15.2376 17.5053 16.3952C17.5053 17.5527 16.6657 18.4942 15.6472 18.4942ZM15.6472 14.4659C14.7156 14.4659 13.9563 15.3319 13.9563 16.3952C13.9563 17.4584 14.7156 18.3227 15.6472 18.3227C16.5788 18.3227 17.3381 17.4653 17.3381 16.3952C17.3381 15.3251 16.5721 14.4659 15.6472 14.4659Z" fill="#013C35"/>
<path d="M15.6193 14.0179C15.5557 12.8534 15.4805 11.5467 15.4688 10.3806C15.4788 9.97584 15.4855 9.57284 15.529 9.16813C15.5323 9.13913 15.5466 9.11264 15.5689 9.09437C15.5911 9.07609 15.6194 9.06748 15.6477 9.07038C15.6721 9.07299 15.6949 9.08413 15.7123 9.10192C15.7296 9.11972 15.7405 9.1431 15.743 9.16813C15.813 9.97449 15.8219 10.7852 15.7698 11.593L15.7196 12.8054C15.6979 13.2101 15.6795 13.6149 15.6527 14.0179C15.6527 14.0224 15.651 14.0268 15.6478 14.03C15.6447 14.0332 15.6404 14.035 15.636 14.035C15.6316 14.035 15.6273 14.0332 15.6242 14.03C15.621 14.0268 15.6193 14.0224 15.6193 14.0179Z" fill="#013C35"/>
<path d="M13.6212 15.2202C12.606 14.6937 11.4654 14.1038 10.4753 13.531C10.1408 13.3201 9.80627 13.1109 9.48181 12.8691C9.47037 12.8607 9.46067 12.8501 9.45328 12.8379C9.44589 12.8257 9.44096 12.812 9.43878 12.7978C9.4366 12.7836 9.43721 12.7691 9.44058 12.7551C9.44395 12.7411 9.45 12.728 9.45839 12.7164C9.47279 12.696 9.49362 12.6812 9.51738 12.6747C9.54114 12.6681 9.56638 12.6701 9.58885 12.6804C10.3044 13.0224 10.9933 13.4202 11.6493 13.8706L12.6528 14.5222C12.9873 14.7452 13.3218 14.963 13.6429 15.1893C13.6469 15.1916 13.6499 15.1954 13.6511 15.1999C13.6524 15.2044 13.6518 15.2092 13.6496 15.2133C13.6474 15.2174 13.6437 15.2205 13.6393 15.2217C13.6349 15.223 13.6302 15.2225 13.6262 15.2202H13.6212Z" fill="#013C35"/>
<path d="M13.6398 17.5918C12.6865 18.228 11.6178 18.9466 10.6377 19.5382C10.2915 19.7303 9.94696 19.9258 9.58236 20.0887C9.55795 20.1005 9.5301 20.1024 9.50437 20.094C9.47865 20.0857 9.45696 20.0677 9.44364 20.0436C9.43032 20.0195 9.42635 19.9912 9.43254 19.9643C9.43872 19.9373 9.4546 19.9138 9.47699 19.8983C10.1241 19.4343 10.8051 19.022 11.5141 18.6653L12.5644 18.1063C12.9173 17.9245 13.2685 17.7393 13.6231 17.5627C13.6268 17.5612 13.6308 17.5611 13.6346 17.5625C13.6383 17.5638 13.6414 17.5665 13.6435 17.57C13.6455 17.5735 13.6462 17.5776 13.6455 17.5816C13.6448 17.5856 13.6428 17.5892 13.6398 17.5918Z" fill="#013C35"/>
<path d="M14.4925 18.4498C14.158 19.1649 13.7917 19.9726 13.4137 20.662C13.2764 20.9003 13.1245 21.1294 12.9588 21.348C12.9408 21.3708 12.9147 21.3855 12.8862 21.3887C12.8577 21.3919 12.8291 21.3834 12.8066 21.3651C12.7884 21.3505 12.7754 21.3302 12.7693 21.3074C12.7633 21.2845 12.7647 21.2602 12.7732 21.2382C13.0542 20.4905 13.5776 19.7823 14.0041 19.1152C14.1563 18.8888 14.3068 18.6607 14.4641 18.4292C14.4758 18.4138 14.5025 18.4292 14.4925 18.4463V18.4498Z" fill="#013C35"/>
<path d="M15.6473 18.7701C15.7075 19.9362 15.7777 21.243 15.7877 22.4091C15.776 22.8138 15.7677 23.2185 15.7225 23.6215C15.7193 23.648 15.7067 23.6725 15.6871 23.6901C15.6676 23.7078 15.6424 23.7176 15.6163 23.7176C15.5902 23.7176 15.5651 23.7078 15.5455 23.6901C15.526 23.6725 15.5134 23.648 15.5101 23.6215C15.4416 22.8144 15.4348 22.0031 15.49 21.1949L15.5436 19.9825C15.567 19.5795 15.5854 19.1748 15.6138 18.7701C15.6138 18.7655 15.6156 18.7612 15.6187 18.758C15.6218 18.7547 15.6261 18.7529 15.6305 18.7529C15.635 18.7529 15.6392 18.7547 15.6424 18.758C15.6455 18.7612 15.6473 18.7655 15.6473 18.7701Z" fill="#013C35"/>
<path d="M16.8007 18.4495C17.2256 19.0789 17.7056 19.7854 18.0869 20.4422C18.2138 20.6744 18.3255 20.915 18.4214 21.1625C18.4302 21.1871 18.4303 21.2142 18.4216 21.2389C18.4129 21.2637 18.3959 21.2844 18.3737 21.2976C18.3515 21.3107 18.3254 21.3154 18.3002 21.3107C18.2749 21.3061 18.2521 21.2924 18.2357 21.2722C17.7591 20.672 17.438 19.8797 17.1001 19.1903C16.9914 18.9485 16.8777 18.7101 16.7656 18.4666C16.7656 18.4495 16.784 18.4323 16.7957 18.4495H16.8007Z" fill="#013C35"/>
<path d="M17.6546 17.5764C18.6681 18.1063 19.8071 18.6979 20.7955 19.2741C21.13 19.4868 21.4645 19.696 21.7873 19.9395C21.7987 19.9479 21.8084 19.9585 21.8158 19.9707C21.8232 19.9829 21.8282 19.9966 21.8303 20.0108C21.8325 20.025 21.8319 20.0395 21.8285 20.0535C21.8252 20.0675 21.8191 20.0806 21.8107 20.0922C21.7961 20.1124 21.7753 20.1269 21.7516 20.1335C21.7279 20.14 21.7028 20.1381 21.6803 20.1282C20.9655 19.7828 20.2778 19.3814 19.6231 18.9277L18.6196 18.2726C18.2851 18.048 17.9506 17.8302 17.6312 17.6021C17.6161 17.5918 17.6312 17.5627 17.6479 17.573L17.6546 17.5764Z" fill="#013C35"/>
<path d="M17.9464 16.3916C18.6606 16.3299 19.465 16.2578 20.1825 16.2476C20.4318 16.252 20.6805 16.2743 20.9268 16.3144C20.9526 16.3178 20.9764 16.3307 20.9937 16.3507C21.0109 16.3708 21.0205 16.3966 21.0205 16.4233C21.0205 16.4501 21.0109 16.4759 20.9937 16.4959C20.9764 16.516 20.9526 16.5289 20.9268 16.5322C20.2093 16.6557 19.4132 16.5442 18.6907 16.4979C18.4431 16.4739 18.1889 16.4551 17.9464 16.4259C17.942 16.4259 17.9377 16.4241 17.9346 16.4209C17.9315 16.4177 17.9297 16.4133 17.9297 16.4088C17.9297 16.4042 17.9315 16.3999 17.9346 16.3966C17.9377 16.3934 17.942 16.3916 17.9464 16.3916Z" fill="#013C35"/>
<path d="M17.6531 15.2034C18.6064 14.5689 19.6785 13.8537 20.6636 13.2655C21.0098 13.0752 21.356 12.8797 21.7206 12.7185C21.745 12.7067 21.7729 12.7048 21.7986 12.7131C21.8243 12.7215 21.846 12.7395 21.8593 12.7636C21.8726 12.7876 21.8766 12.816 21.8704 12.8429C21.8642 12.8698 21.8484 12.8934 21.826 12.9088C21.1777 13.371 20.4955 13.7809 19.7855 14.135L18.7335 14.6906C18.379 14.8621 18.0278 15.0559 17.6715 15.2325C17.6548 15.2325 17.6381 15.2137 17.6565 15.2034H17.6531Z" fill="#013C35"/>
<path d="M16.7912 14.342C17.114 13.656 17.4736 12.8654 17.8415 12.1966C17.9746 11.9673 18.1233 11.7478 18.2864 11.5398C18.3021 11.518 18.325 11.5029 18.3509 11.4974C18.3767 11.4919 18.4037 11.4964 18.4265 11.51C18.4493 11.5236 18.4664 11.5454 18.4745 11.5712C18.4826 11.5969 18.4812 11.6249 18.4704 11.6496C18.1995 12.3767 17.6877 13.0592 17.2712 13.7075C17.1207 13.9252 16.9752 14.1448 16.8213 14.3608C16.8191 14.3649 16.8154 14.368 16.811 14.3692C16.8066 14.3705 16.8019 14.37 16.7979 14.3677C16.7939 14.3654 16.791 14.3616 16.7897 14.3571C16.7885 14.3526 16.789 14.3478 16.7912 14.3437V14.342Z" fill="#013C35"/>
<path d="M13.3361 16.4227C12.622 16.493 11.8192 16.5719 11.1017 16.5942C10.8526 16.5927 10.6039 16.5732 10.3574 16.5359C10.3433 16.5338 10.3297 16.5289 10.3175 16.5213C10.3053 16.5138 10.2946 16.5038 10.2862 16.492C10.2778 16.4801 10.2718 16.4667 10.2685 16.4524C10.2652 16.4382 10.2647 16.4234 10.2671 16.409C10.2709 16.3863 10.2815 16.3654 10.2974 16.3491C10.3132 16.3329 10.3336 16.322 10.3558 16.3181C11.0716 16.1861 11.8694 16.2907 12.5902 16.3301C12.8394 16.3524 13.0919 16.3696 13.3361 16.3953C13.3406 16.3953 13.3448 16.3971 13.3479 16.4003C13.3511 16.4035 13.3528 16.4079 13.3528 16.4124C13.3528 16.417 13.3511 16.4213 13.3479 16.4246C13.3448 16.4278 13.3406 16.4296 13.3361 16.4296V16.4227Z" fill="#013C35"/>
<path d="M14.4778 14.3595C14.0463 13.7319 13.558 13.027 13.1699 12.3702C13.0428 12.1381 12.9311 11.8975 12.8354 11.65C12.8251 11.6225 12.8257 11.5918 12.8373 11.5648C12.8489 11.5378 12.8705 11.5167 12.8973 11.5059C12.9186 11.4979 12.9418 11.4968 12.9637 11.503C12.9856 11.5091 13.0051 11.5222 13.0194 11.5402C13.5044 12.137 13.8339 12.9293 14.1784 13.6187C14.2905 13.8605 14.4059 14.0989 14.5129 14.3424C14.5152 14.3465 14.5157 14.3513 14.5144 14.3558C14.5132 14.3603 14.5102 14.3641 14.5062 14.3664C14.5023 14.3687 14.4975 14.3692 14.4932 14.3679C14.4888 14.3666 14.4851 14.3636 14.4828 14.3595H14.4778Z" fill="#013C35"/>
<path d="M24.3303 21.924C23.5234 23.2936 22.2476 24.3057 20.7521 24.7626C19.2565 25.2196 17.6486 25.0886 16.2422 24.3952C16.8814 25.412 17.7627 26.2452 18.8029 26.816C19.8432 27.3869 21.0081 27.6766 22.1878 27.6578C23.3675 27.6391 24.5231 27.3126 25.5456 26.709C26.5682 26.1055 27.4239 25.2448 28.0321 24.2081C28.6403 23.1715 28.981 21.9931 29.0219 20.784C29.0629 19.575 28.8028 18.3752 28.2662 17.2977C27.7297 16.2203 26.9342 15.3008 25.955 14.6259C24.9758 13.951 23.8451 13.5431 22.6695 13.4404C23.9254 14.3897 24.7913 15.7847 25.0984 17.3532C25.4054 18.9218 25.1316 20.5513 24.3303 21.924Z" stroke="#013C35" stroke-width="0.344688" stroke-miterlimit="10"/>
</svg>
